# OBJ file exported from Hammer

g default
v -768 256 256
v -512 256 256
v -768 256 -256
v -512 0 256
v -768 0 -256
v -512 0 -256
v -512 256 -256
v -768 0 256

vn 0 0 1
vn 0 1 -0
vn 1 0 -0
vn 0 1 -0
vn 0 0 -1
vn 0 1 -0
vn 0 0 1
vn 1 0 -0
vn 0 0 -1
vn 0 -1 -0
vn 1 0 -0
vn 0 -1 -0
vn 0 0 1
vn 0 -1 -0
vn 1 0 -0
vn 0 0 -1
vn 0 -1 -0
vn -1 0 -0
vn -1 0 -0
vn 0 0 1
vn 0 1 -0
vn -1 0 -0
vn 0 0 -1
vn -1 0 -0

vt -46 -2
vt -44 2
vt -2 -2
vt -44 -2
vt -44 -2
vt -46 -2
vt -44 -2
vt -2 0
vt -46 0
vt -44 -2
vt 2 0
vt -44 2
vt -44 0
vt -46 2
vt 2 -2
vt -44 0
vt -46 -2
vt -2 0
vt -2 -2
vt -46 0
vt -46 2
vt 2 -2
vt -46 -2
vt 2 0

s off
g mesh_8

f 1/21/21 2/2/2 7/4/4 3/6/6
f 5/17/17 6/10/10 4/12/12 8/14/14
f 5/24/24 8/18/18 1/19/19 3/22/22
f 7/15/15 2/3/3 4/8/8 6/11/11
f 6/16/16 5/9/9 3/23/23 7/5/5
f 2/7/7 1/1/1 8/20/20 4/13/13

g default
v -1280 256 384
v -768 256 384
v -1280 256 -384
v -768 0 384
v -1280 0 -384
v -768 0 -384
v -768 256 -384
v -1280 0 384

vn 0 0 1
vn 0 1 -0
vn 1 0 -0
vn 0 1 -0
vn 0 0 -1
vn 0 1 -0
vn 0 0 1
vn 1 0 -0
vn 0 0 -1
vn 0 -1 -0
vn 1 0 -0
vn 0 -1 -0
vn 0 0 1
vn 0 -1 -0
vn 1 0 -0
vn 0 0 -1
vn 0 -1 -0
vn -1 0 -0
vn -1 0 -0
vn 0 0 1
vn 0 1 -0
vn -1 0 -0
vn 0 0 -1
vn -1 0 -0

vt -10 -2
vt -6 2
vt -2 -2
vt -6 -4
vt -6 -2
vt -10 -4
vt -6 -2
vt -2 0
vt -10 0
vt -6 -4
vt 4 0
vt -6 2
vt -6 0
vt -10 2
vt 4 -2
vt -6 0
vt -10 -4
vt -2 0
vt -2 -2
vt -10 0
vt -10 2
vt 4 -2
vt -10 -2
vt 4 0

s off
g mesh_10497

f 9/45/45 10/26/26 15/28/28 11/30/30
f 13/41/41 14/34/34 12/36/36 16/38/38
f 13/48/48 16/42/42 9/43/43 11/46/46
f 15/39/39 10/27/27 12/32/32 14/35/35
f 14/40/40 13/33/33 11/47/47 15/29/29
f 10/31/31 9/25/25 16/44/44 12/37/37

g default
v -512 256 384
v -3.05176e-05 256 384
v -512 256 -384
v -3.05176e-05 0 384
v -512 0 -384
v -3.05176e-05 0 -384
v -3.05176e-05 256 -384
v -512 0 384

vn 0 0 1
vn 0 1 -0
vn 1 0 -0
vn 0 1 -0
vn 0 0 -1
vn 0 1 -0
vn 0 0 1
vn 1 0 -0
vn 0 0 -1
vn 0 -1 -0
vn 1 0 -0
vn 0 -1 -0
vn 0 0 1
vn 0 -1 -0
vn 1 0 -0
vn 0 0 -1
vn 0 -1 -0
vn -1 0 -0
vn -1 0 -0
vn 0 0 1
vn 0 1 -0
vn -1 0 -0
vn 0 0 -1
vn -1 0 -0

vt -4 -2
vt -2.38419e-07 2
vt -2 -2
vt -2.38419e-07 -4
vt -2.38419e-07 -2
vt -4 -4
vt -2.38419e-07 -2
vt -2 0
vt -4 0
vt -2.38419e-07 -4
vt 4 0
vt -2.38419e-07 2
vt -2.38419e-07 0
vt -4 2
vt 4 -2
vt -2.38419e-07 0
vt -4 -4
vt -2 0
vt -2 -2
vt -4 0
vt -4 2
vt 4 -2
vt -4 -2
vt 4 0

s off
g mesh_10500

f 17/69/69 18/50/50 23/52/52 19/54/54
f 21/65/65 22/58/58 20/60/60 24/62/62
f 21/72/72 24/66/66 17/67/67 19/70/70
f 23/63/63 18/51/51 20/56/56 22/59/59
f 22/64/64 21/57/57 19/71/71 23/53/53
f 18/55/55 17/49/49 24/68/68 20/61/61

g default
v -3.05176e-05 256 256
v 256 256 256
v -3.05176e-05 256 -256
v 256 0 256
v -3.05176e-05 0 -256
v 256 0 -256
v 256 256 -256
v -3.05176e-05 0 256

vn 0 0 1
vn 0 1 -0
vn 1 0 -0
vn 0 1 -0
vn 0 0 -1
vn 0 1 -0
vn 0 0 1
vn 1 0 -0
vn 0 0 -1
vn 0 -1 -0
vn 1 0 -0
vn 0 -1 -0
vn 0 0 1
vn 0 -1 -0
vn 1 0 -0
vn 0 0 -1
vn 0 -1 -0
vn -1 0 -0
vn -1 0 -0
vn 0 0 1
vn 0 1 -0
vn -1 0 -0
vn 0 0 -1
vn -1 0 -0

vt -40 -2
vt -38 2
vt -2 -2
vt -38 -2
vt -38 -2
vt -40 -2
vt -38 -2
vt -2 0
vt -40 0
vt -38 -2
vt 2 0
vt -38 2
vt -38 0
vt -40 2
vt 2 -2
vt -38 0
vt -40 -2
vt -2 0
vt -2 -2
vt -40 0
vt -40 2
vt 2 -2
vt -40 -2
vt 2 0

s off
g mesh_10501

f 25/93/93 26/74/74 31/76/76 27/78/78
f 29/89/89 30/82/82 28/84/84 32/86/86
f 29/96/96 32/90/90 25/91/91 27/94/94
f 31/87/87 26/75/75 28/80/80 30/83/83
f 30/88/88 29/81/81 27/95/95 31/77/77
f 26/79/79 25/73/73 32/92/92 28/85/85

g default
v 256 256 384
v 768 256 384
v 256 256 -384
v 768 0 384
v 256 0 -384
v 768 0 -384
v 768 256 -384
v 256 0 384

vn 0 0 1
vn 0 1 -0
vn 1 0 -0
vn 0 1 -0
vn 0 0 -1
vn 0 1 -0
vn 0 0 1
vn 1 0 -0
vn 0 0 -1
vn 0 -1 -0
vn 1 0 -0
vn 0 -1 -0
vn 0 0 1
vn 0 -1 -0
vn 1 0 -0
vn 0 0 -1
vn 0 -1 -0
vn -1 0 -0
vn -1 0 -0
vn 0 0 1
vn 0 1 -0
vn -1 0 -0
vn 0 0 -1
vn -1 0 -0

vt 2 -2
vt 6 2
vt -2 -2
vt 6 -4
vt 6 -2
vt 2 -4
vt 6 -2
vt -2 0
vt 2 0
vt 6 -4
vt 4 0
vt 6 2
vt 6 0
vt 2 2
vt 4 -2
vt 6 0
vt 2 -4
vt -2 0
vt -2 -2
vt 2 0
vt 2 2
vt 4 -2
vt 2 -2
vt 4 0

s off
g mesh_10502

f 33/117/117 34/98/98 39/100/100 35/102/102
f 37/113/113 38/106/106 36/108/108 40/110/110
f 37/120/120 40/114/114 33/115/115 35/118/118
f 39/111/111 34/99/99 36/104/104 38/107/107
f 38/112/112 37/105/105 35/119/119 39/101/101
f 34/103/103 33/97/97 40/116/116 36/109/109

g default
v -384 272 64
v -256 272 64
v -384 272 -64
v -256 256 64
v -384 256 -64
v -256 256 -64
v -256 272 -64
v -384 256 64

vn 0 0 1
vn 0 1 -0
vn 1 0 -0
vn 0 1 -0
vn 0 0 -1
vn 0 1 -0
vn 0 0 1
vn 1 0 -0
vn 0 0 -1
vn 0 -1 -0
vn 1 0 -0
vn 0 -1 -0
vn 0 0 1
vn 0 -1 -0
vn 1 0 -0
vn 0 0 -1
vn 0 -1 -0
vn -1 0 -0
vn -1 0 -0
vn 0 0 1
vn 0 1 -0
vn -1 0 -0
vn 0 0 -1
vn -1 0 -0

vt -34 -2.125
vt -33 -1
vt 1 -2.125
vt -33 -2
vt -33 -2.125
vt -34 -2
vt -33 -2.125
vt 1 -2
vt -34 -2
vt -33 -2
vt 2 -2
vt -33 -1
vt -33 -2
vt -34 -1
vt 2 -2.125
vt -33 -2
vt -34 -2
vt 1 -2
vt 1 -2.125
vt -34 -2
vt -34 -1
vt 2 -2.125
vt -34 -2.125
vt 2 -2

s off
g mesh_10505

f 41/141/141 42/122/122 47/124/124 43/126/126
f 45/137/137 46/130/130 44/132/132 48/134/134
f 45/144/144 48/138/138 41/139/139 43/142/142
f 47/135/135 42/123/123 44/128/128 46/131/131
f 46/136/136 45/129/129 43/143/143 47/125/125
f 42/127/127 41/121/121 48/140/140 44/133/133

g default
v -2048 64 2048
v 2048 64 2048
v -2048 64 -2048
v 2048 0 2048
v -2048 0 -2048
v 2048 0 -2048
v 2048 64 -2048
v -2048 0 2048

vn 0 0 1
vn 0 1 -0
vn 1 0 -0
vn 0 1 -0
vn 0 0 -1
vn 0 1 -0
vn 0 0 1
vn 1 0 -0
vn 0 0 -1
vn 0 -1 -0
vn 1 0 -0
vn 0 -1 -0
vn 0 0 1
vn 0 -1 -0
vn 1 0 -0
vn 0 0 -1
vn 0 -1 -0
vn -1 0 -0
vn -1 0 -0
vn 0 0 1
vn 0 1 -0
vn -1 0 -0
vn 0 0 -1
vn -1 0 -0

vt -16 -0.5
vt 16 16
vt -16 -0.5
vt 16 -16
vt 16 -0.5
vt -16 -16
vt 16 -0.5
vt -16 0
vt -16 0
vt 16 -16
vt 16 0
vt 16 16
vt 16 0
vt -16 16
vt 16 -0.5
vt 16 0
vt -16 -16
vt -16 0
vt -16 -0.5
vt -16 0
vt -16 16
vt 16 -0.5
vt -16 -0.5
vt 16 0

s off
g mesh_10544

f 49/165/165 50/146/146 55/148/148 51/150/150
f 53/161/161 54/154/154 52/156/156 56/158/158
f 53/168/168 56/162/162 49/163/163 51/166/166
f 55/159/159 50/147/147 52/152/152 54/155/155
f 54/160/160 53/153/153 51/167/167 55/149/149
f 50/151/151 49/145/145 56/164/164 52/157/157

g default
v 0 384 256
v 32 384 256
v 0 384 -256
v 32 256 256
v 0 256 -256
v 32 256 -256
v 32 384 -256
v 0 256 256

vn 0 0 1
vn 0 1 -0
vn 1 0 -0
vn 0 1 -0
vn 0 0 -1
vn 0 1 -0
vn 0 0 1
vn 1 0 -0
vn 0 0 -1
vn 0 -1 -0
vn 1 0 -0
vn 0 -1 -0
vn 0 0 1
vn 0 -1 -0
vn 1 0 -0
vn 0 0 -1
vn 0 -1 -0
vn -1 0 -0
vn -1 0 -0
vn 0 0 1
vn 0 1 -0
vn -1 0 -0
vn 0 0 -1
vn -1 0 -0

vt 1 -3
vt 1.25 2.5
vt -1.5 -3
vt 1.25 -1.5
vt 1.25 -3
vt 1 -1.5
vt 1.25 -3
vt -1.5 -2
vt 1 -2
vt 1.25 -1.5
vt 2.5 -2
vt 1.25 2.5
vt 1.25 -2
vt 1 2.5
vt 2.5 -3
vt 1.25 -2
vt 1 -1.5
vt -1.5 -2
vt -1.5 -3
vt 1 -2
vt 1 2.5
vt 2.5 -3
vt 1 -3
vt 2.5 -2

s off
g mesh_10549

f 57/189/189 58/170/170 63/172/172 59/174/174
f 61/185/185 62/178/178 60/180/180 64/182/182
f 61/192/192 64/186/186 57/187/187 59/190/190
f 63/183/183 58/171/171 60/176/176 62/179/179
f 62/184/184 61/177/177 59/191/191 63/173/173
f 58/175/175 57/169/169 64/188/188 60/181/181

g default
v 768 256 256
v 1024 256 256
v 768 256 -256
v 1024 0 256
v 768 0 -256
v 1024 0 -256
v 1024 256 -256
v 768 0 256

vn 0 0 1
vn 0 1 -0
vn 1 0 -0
vn 0 1 -0
vn 0 0 -1
vn 0 1 -0
vn 0 0 1
vn 1 0 -0
vn 0 0 -1
vn 0 -1 -0
vn 1 0 -0
vn 0 -1 -0
vn 0 0 1
vn 0 -1 -0
vn 1 0 -0
vn 0 0 -1
vn 0 -1 -0
vn -1 0 -0
vn -1 0 -0
vn 0 0 1
vn 0 1 -0
vn -1 0 -0
vn 0 0 -1
vn -1 0 -0

vt -40 -2
vt -38 2
vt -2 -2
vt -38 -2
vt -38 -2
vt -40 -2
vt -38 -2
vt -2 0
vt -40 0
vt -38 -2
vt 2 0
vt -38 2
vt -38 0
vt -40 2
vt 2 -2
vt -38 0
vt -40 -2
vt -2 0
vt -2 -2
vt -40 0
vt -40 2
vt 2 -2
vt -40 -2
vt 2 0

s off
g mesh_10572

f 65/213/213 66/194/194 71/196/196 67/198/198
f 69/209/209 70/202/202 68/204/204 72/206/206
f 69/216/216 72/210/210 65/211/211 67/214/214
f 71/207/207 66/195/195 68/200/200 70/203/203
f 70/208/208 69/201/201 67/215/215 71/197/197
f 66/199/199 65/193/193 72/212/212 68/205/205

g default
v 1024 256 384
v 1536 256 384
v 1024 256 -384
v 1536 0 384
v 1024 0 -384
v 1536 0 -384
v 1536 256 -384
v 1024 0 384

vn 0 0 1
vn 0 1 -0
vn 1 0 -0
vn 0 1 -0
vn 0 0 -1
vn 0 1 -0
vn 0 0 1
vn 1 0 -0
vn 0 0 -1
vn 0 -1 -0
vn 1 0 -0
vn 0 -1 -0
vn 0 0 1
vn 0 -1 -0
vn 1 0 -0
vn 0 0 -1
vn 0 -1 -0
vn -1 0 -0
vn -1 0 -0
vn 0 0 1
vn 0 1 -0
vn -1 0 -0
vn 0 0 -1
vn -1 0 -0

vt 8 -2
vt 12 2
vt -2 -2
vt 12 -4
vt 12 -2
vt 8 -4
vt 12 -2
vt -2 0
vt 8 0
vt 12 -4
vt 4 0
vt 12 2
vt 12 0
vt 8 2
vt 4 -2
vt 12 0
vt 8 -4
vt -2 0
vt -2 -2
vt 8 0
vt 8 2
vt 4 -2
vt 8 -2
vt 4 0

s off
g mesh_10573

f 73/237/237 74/218/218 79/220/220 75/222/222
f 77/233/233 78/226/226 76/228/228 80/230/230
f 77/240/240 80/234/234 73/235/235 75/238/238
f 79/231/231 74/219/219 76/224/224 78/227/227
f 78/232/232 77/225/225 75/239/239 79/221/221
f 74/223/223 73/217/217 80/236/236 76/229/229

g default
v 768 384 256
v 800 384 256
v 768 384 -256
v 800 256 256
v 768 256 -256
v 800 256 -256
v 800 384 -256
v 768 256 256

vn 0 0 1
vn 0 1 -0
vn 1 0 -0
vn 0 1 -0
vn 0 0 -1
vn 0 1 -0
vn 0 0 1
vn 1 0 -0
vn 0 0 -1
vn 0 -1 -0
vn 1 0 -0
vn 0 -1 -0
vn 0 0 1
vn 0 -1 -0
vn 1 0 -0
vn 0 0 -1
vn 0 -1 -0
vn -1 0 -0
vn -1 0 -0
vn 0 0 1
vn 0 1 -0
vn -1 0 -0
vn 0 0 -1
vn -1 0 -0

vt 1 -3
vt 1.25 2.5
vt -1.5 -3
vt 1.25 -1.5
vt 1.25 -3
vt 1 -1.5
vt 1.25 -3
vt -1.5 -2
vt 1 -2
vt 1.25 -1.5
vt 2.5 -2
vt 1.25 2.5
vt 1.25 -2
vt 1 2.5
vt 2.5 -3
vt 1.25 -2
vt 1 -1.5
vt -1.5 -2
vt -1.5 -3
vt 1 -2
vt 1 2.5
vt 2.5 -3
vt 1 -3
vt 2.5 -2

s off
g mesh_10580

f 81/261/261 82/242/242 87/244/244 83/246/246
f 85/257/257 86/250/250 84/252/252 88/254/254
f 85/264/264 88/258/258 81/259/259 83/262/262
f 87/255/255 82/243/243 84/248/248 86/251/251
f 86/256/256 85/249/249 83/263/263 87/245/245
f 82/247/247 81/241/241 88/260/260 84/253/253

g default
v -384 384 64
v -256 384 64
v -384 384 -64
v -256 256 64
v -384 256 -64
v -256 256 -64
v -256 384 -64
v -384 256 64

vn 0 0 1
vn 0 1 -0
vn 1 0 -0
vn 0 1 -0
vn 0 0 -1
vn 0 1 -0
vn 0 0 1
vn 1 0 -0
vn 0 0 -1
vn 0 -1 -0
vn 1 0 -0
vn 0 -1 -0
vn 0 0 1
vn 0 -1 -0
vn 1 0 -0
vn 0 0 -1
vn 0 -1 -0
vn -1 0 -0
vn -1 0 -0
vn 0 0 1
vn 0 1 -0
vn -1 0 -0
vn 0 0 -1
vn -1 0 -0

vt -280 -24
vt -272 -8
vt 8 -24
vt -272 -16
vt -272 -24
vt -280 -16
vt -272 -24
vt 8 -16
vt -280 -16
vt -272 -16
vt 16 -16
vt -272 -8
vt -272 -16
vt -280 -8
vt 16 -24
vt -272 -16
vt -280 -16
vt 8 -16
vt 8 -24
vt -280 -16
vt -280 -8
vt 16 -24
vt -280 -24
vt 16 -16

s off
g mesh_10506

f 89/285/285 90/266/266 95/268/268 91/270/270
f 93/281/281 94/274/274 92/276/276 96/278/278
f 93/288/288 96/282/282 89/283/283 91/286/286
f 95/279/279 90/267/267 92/272/272 94/275/275
f 94/280/280 93/273/273 91/287/287 95/269/269
f 90/271/271 89/265/265 96/284/284 92/277/277

g default
v 1024 384 384
v 1536 384 384
v 1024 384 -384
v 1536 256 384
v 1024 256 -384
v 1536 256 -384
v 1536 384 -384
v 1024 256 384

vn 0 0 1
vn 0 1 -0
vn 1 0 -0
vn 0 1 -0
vn 0 0 -1
vn 0 1 -0
vn 0 0 1
vn 1 0 -0
vn 0 0 -1
vn 0 -1 -0
vn 1 0 -0
vn 0 -1 -0
vn 0 0 1
vn 0 -1 -0
vn 1 0 -0
vn 0 0 -1
vn 0 -1 -0
vn -1 0 -0
vn -1 0 -0
vn 0 0 1
vn 0 1 -0
vn -1 0 -0
vn 0 0 -1
vn -1 0 -0

vt 63.9999 -24
vt 95.9998 16
vt -16 -24
vt 95.9998 -32
vt 95.9998 -24
vt 63.9999 -32
vt 95.9998 -24
vt -16 -16
vt 63.9999 -16
vt 95.9998 -32
vt 32 -16
vt 95.9998 16
vt 95.9998 -16
vt 63.9999 16
vt 32 -24
vt 95.9998 -16
vt 63.9999 -32
vt -16 -16
vt -16 -24
vt 63.9999 -16
vt 63.9999 16
vt 32 -24
vt 63.9999 -24
vt 32 -16

s off
g mesh_10586

f 97/309/309 98/290/290 103/292/292 99/294/294
f 101/305/305 102/298/298 100/300/300 104/302/302
f 101/312/312 104/306/306 97/307/307 99/310/310
f 103/303/303 98/291/291 100/296/296 102/299/299
f 102/304/304 101/297/297 99/311/311 103/293/293
f 98/295/295 97/289/289 104/308/308 100/301/301

g default
v 1024 272 384
v 1536 272 384
v 1024 272 -384
v 1536 256 384
v 1024 256 -384
v 1536 256 -384
v 1536 272 -384
v 1024 256 384

vn 0 0 1
vn 0 1 -0
vn 1 0 -0
vn 0 1 -0
vn 0 0 -1
vn 0 1 -0
vn 0 0 1
vn 1 0 -0
vn 0 0 -1
vn 0 -1 -0
vn 1 0 -0
vn 0 -1 -0
vn 0 0 1
vn 0 -1 -0
vn 1 0 -0
vn 0 0 -1
vn 0 -1 -0
vn -1 0 -0
vn -1 0 -0
vn 0 0 1
vn 0 1 -0
vn -1 0 -0
vn 0 0 -1
vn -1 0 -0

vt 8 -2.125
vt 12 2.5
vt -1.5 -2.125
vt 12 -3.5
vt 12 -2.125
vt 8 -3.5
vt 12 -2.125
vt -1.5 -2
vt 8 -2
vt 12 -3.5
vt 4.5 -2
vt 12 2.5
vt 12 -2
vt 8 2.5
vt 4.5 -2.125
vt 12 -2
vt 8 -3.5
vt -1.5 -2
vt -1.5 -2.125
vt 8 -2
vt 8 2.5
vt 4.5 -2.125
vt 8 -2.125
vt 4.5 -2

s off
g mesh_10592

f 105/333/333 106/314/314 111/316/316 107/318/318
f 109/329/329 110/322/322 108/324/324 112/326/326
f 109/336/336 112/330/330 105/331/331 107/334/334
f 111/327/327 106/315/315 108/320/320 110/323/323
f 110/328/328 109/321/321 107/335/335 111/317/317
f 106/319/319 105/313/313 112/332/332 108/325/325

