<svg xmlns="http://www.w3.org/2000/svg" xmlns:xlink="http://www.w3.org/1999/xlink" viewBox="0 0 731.92 251.56"><defs><symbol id="Pawn" data-name="Pawn" viewBox="0 0 76.88 133.32"><path d="M51.69,72.05v-14a3,3,0,0,0-3-3H28.16a3,3,0,0,0-3,3v14a35.31,35.31,0,0,1-2.38,10.87,3,3,0,0,0,2.72,4.13H51.34a3,3,0,0,0,2.73-4.13A35,35,0,0,1,51.69,72.05Z" style="fill:#fff"/><path d="M59.31,45.56H57.4s-5.68-.07-7.58-1.68a1.82,1.82,0,0,0-1.18-.48H28.24a1.82,1.82,0,0,0-1.18.48c-1.91,1.61-7.58,1.68-7.58,1.68H17.56s-2.33-.16-2.33,2.92,2.58,2.58,2.58,2.58h18.5v0l2.13,0,2.12,0v0h18.5s2.59.5,2.59-2.58S59.31,45.56,59.31,45.56Z" style="fill:#fff"/><path d="M54.42,5.13C49-.41,40.59,0,38.39,0c-1.84,0-10.59-.42-16,5.12-6.15,6.25-5.5,9.88-5.5,15.63S20.37,38,29.29,39.13c3.36.42,4.93.23,9.1.2s5.73.22,9.09-.2C56.4,38,59.91,26.51,59.91,20.76S60.56,11.38,54.42,5.13Z" style="fill:#fff"/><path d="M71.89,121.43c1.64.28,5,1.3,5,4.89A4.3,4.3,0,0,1,73.34,131a1,1,0,0,0-.84,1v.26a1.05,1.05,0,0,1-1.06,1.06h-66a1.05,1.05,0,0,1-1-1.06V132a1,1,0,0,0-.85-1C2.26,130.7,0,129.74,0,126.32c0-3.59,3.35-4.61,5-4.89Z" style="fill:#fff"/><path d="M69.91,106.1a1.21,1.21,0,0,1-.47-.23l-7.38-6.52a2.7,2.7,0,0,1-.9-2V93.73a2.68,2.68,0,0,0-2.69-2.68H18.4a2.68,2.68,0,0,0-2.68,2.68v3.61a2.67,2.67,0,0,1-.91,2l-7.38,6.52a1.09,1.09,0,0,1-.47.23c-1,.23-4.24,1.34-4.24,5.83,0,4,1.62,5.49,10.12,5.49H64c8.5,0,10.13-1.44,10.13-5.49C74.16,107.44,70.86,106.33,69.91,106.1Z" style="fill:#fff"/></symbol><symbol id="Rock" data-name="Rock" viewBox="0 0 75.08 134.08"><path d="M60,0H52a1.5,1.5,0,0,0-1.5,1.5V9.33a1.5,1.5,0,0,1-1.5,1.5h-.67a1.5,1.5,0,0,1-1.5-1.5V1.5A1.5,1.5,0,0,0,45.31,0H29.77a1.5,1.5,0,0,0-1.5,1.5V9.33a1.5,1.5,0,0,1-1.5,1.5H26.1a1.5,1.5,0,0,1-1.5-1.5V1.5A1.5,1.5,0,0,0,23.1,0h-8a1.5,1.5,0,0,0-1.5,1.5V17a1.5,1.5,0,0,0,1.5,1.5h5.46A1.5,1.5,0,0,1,22,20.33h0a1.51,1.51,0,0,0,1.46,1.84H51.6a1.5,1.5,0,0,0,1.46-1.84h0a1.5,1.5,0,0,1,1.47-1.83H60a1.5,1.5,0,0,0,1.5-1.5V1.5A1.5,1.5,0,0,0,60,0Z" style="fill:#fff"/><path d="M52.39,27.67a2.08,2.08,0,0,0-2.07-1.88H24.76a2.08,2.08,0,0,0-2.07,1.88L16.1,93a2.08,2.08,0,0,0,2.08,2.29H56.91A2.08,2.08,0,0,0,59,93Z" style="fill:#fff"/><path d="M67.63,107.38a6.8,6.8,0,0,1-4.87-5.72,2.91,2.91,0,0,0-2.89-2.37H14.7a2.91,2.91,0,0,0-2.89,2.37,6.8,6.8,0,0,1-4.87,5.72c-5.67,1.66-5.17,5.91-5.17,5.91A4.76,4.76,0,0,0,6.86,118H67.71a4.76,4.76,0,0,0,5.09-4.75S73.3,109,67.63,107.38Z" style="fill:#fff"/><path d="M72.37,125.11,70,122.57a1.26,1.26,0,0,0-.93-.4h-63a1.26,1.26,0,0,0-.93.4l-2.4,2.54a1.23,1.23,0,0,1-.45.3A3.32,3.32,0,0,0,0,128.5a2.66,2.66,0,0,0,2.66,3,1.26,1.26,0,0,1,1.09,1.27h0A1.28,1.28,0,0,0,5,134.08h65a1.28,1.28,0,0,0,1.28-1.28h0a1.26,1.26,0,0,1,1.09-1.27,2.66,2.66,0,0,0,2.66-3,3.31,3.31,0,0,0-2.26-3.09A1.08,1.08,0,0,1,72.37,125.11Z" style="fill:#fff"/></symbol><symbol id="Knight" data-name="Knight" viewBox="0 0 96.44 160.34"><path d="M88.42,130.86a4.46,4.46,0,0,0-3.57-1.65H6.67a4.58,4.58,0,0,0-3.81,2,5.4,5.4,0,0,0-.2,6.17A19.85,19.85,0,0,1,4.3,139.8a4.65,4.65,0,0,0,4.08,2.29H83.12a4.65,4.65,0,0,0,4.08-2.29,19.85,19.85,0,0,1,1.64-2.46A5.47,5.47,0,0,0,88.42,130.86Z" style="fill:#fff"/><path d="M88.06,147a2.92,2.92,0,0,0-2.09-.86H5.53a2.92,2.92,0,0,0-2.09.86C2.19,148.26,0,150.71,0,151.84s4.31,4.84,6.3,6.46a2.62,2.62,0,0,1,1,2H84.21a2.62,2.62,0,0,1,1-2c2-1.62,6.3-5.25,6.3-6.46S89.31,148.26,88.06,147Z" style="fill:#fff"/><path d="M84.65,120c-4.63,0-7.88-1.87-7.88-4.25s10.38-9,4.13-9H10.6c-6.25,0,4.13,6.63,4.13,9S11.48,120,6.85,120s-5.87,5.21,0,5.21h77.8C90.52,125.21,89.27,120,84.65,120Z" style="fill:#fff"/><path d="M96.08,48.09C94.21,46.21,73,22.92,70.84,6.26c0-.06,0-.12,0-.18-.06-3.81,0-4.81-.87-5.71A1.28,1.28,0,0,0,67.81,1a11.7,11.7,0,0,0-.16,3.13,1.25,1.25,0,0,1-.74,1.25A12.68,12.68,0,0,1,62.08,6.5c-3,0-4.74-4.91-10.25-2.75C35.5,10.15,21.17,21.48,18.17,61v40.53a1.25,1.25,0,0,0,1.26,1.26H75.74A1.26,1.26,0,0,0,77,101.49V98.77a3.08,3.08,0,0,0-1.56-2.53c-3.31-1.64-10.71-6.49-15.27-21.15-5.57-17.88-5-20.6-5-28.2a1.25,1.25,0,1,1,2.5.12c-.29,3.34-.27,8.8,2.83,9.49,4.5,1,16.33.59,18,.59s2.5,5.33,8,5.33S98,50,96.08,48.09ZM70,24.21c-3.17,1.42-5-2.75-5.25-3.75s1.8-3.34,5.25-.58C71.05,20.72,73.17,22.79,70,24.21Z" style="fill:#fff"/></symbol><symbol id="Bishop" data-name="Bishop" viewBox="0 0 90.56 194"><path d="M90.13,186.21c-.49-1.87-2-2.08-3.13-2.08H3.56c-1.12,0-2.63.21-3.12,2.08A25.48,25.48,0,0,0,0,190.57,3.31,3.31,0,0,0,3.3,194h84a3.3,3.3,0,0,0,3.3-3.43A25.63,25.63,0,0,0,90.13,186.21Z" style="fill:#fff"/><path d="M86.85,172.5c-1.36-.24-9-1.83-12.61-6.22a5,5,0,0,0-3.89-1.78H20.22a5,5,0,0,0-3.89,1.78c-3.61,4.39-11.25,6-12.61,6.22-2.13.38-3.54.42-3.54,4.83,0,2.11,1.46,3,4.12,3h82c2.67,0,4.13-.89,4.13-3C90.39,172.92,89,172.88,86.85,172.5Z" style="fill:#fff"/><path d="M62.73,143.06a2.15,2.15,0,0,0-1.9-1.14H29.73a2.16,2.16,0,0,0-1.9,1.14c-2.34,4.42-7,7-9.21,8.07a2.16,2.16,0,0,0-1.25,2v5.24h0a2.17,2.17,0,0,0,2.16,2.17H71a2.17,2.17,0,0,0,2.17-2.17h0v-5.24a2.17,2.17,0,0,0-1.25-2C69.72,150.09,65.08,147.48,62.73,143.06Z" style="fill:#fff"/><path d="M60.25,98.74a3,3,0,0,0-3-2.95H33.36a3,3,0,0,0-3.05,2.95l-1.18,36a3.06,3.06,0,0,0,3.05,3.15H58.39a3,3,0,0,0,3-3.15Z" style="fill:#fff"/><path d="M71.57,83a10.65,10.65,0,0,1-2.13-.17,1,1,0,0,1,0-2A2,2,0,0,0,70.91,79c0-.83-.75-2-2.92-2H22.57c-2.16,0-2.91,1.17-2.91,2a2,2,0,0,0,1.51,1.81,1,1,0,0,1,0,2A10.77,10.77,0,0,1,19,83c-3.8,0-8.17,2.34-8.17,5.59s2.25,3.16,6.92,3.16H72.82c4.67,0,6.92.09,6.92-3.16S75.37,83,71.57,83Z" style="fill:#fff"/><path d="M72.6,51.21c0-10.67-16.55-37.29-16.55-37.29a2.88,2.88,0,0,1,.6-3.11C58,9.45,59.11,1.81,52.33.55L52.26.48A45.5,45.5,0,0,0,45.77,0h-1a45.31,45.31,0,0,0-6.49.48l-.07.07c-6.79,1.26-5.68,8.9-4.33,10.26a2.88,2.88,0,0,1,.6,3.11S18,40.54,18,51.21s7.55,14.22,7.55,15.42-2.28.36-2.28,3.12c0,2,.24,3.47,1.92,3.47H65.4c1.68,0,1.92-1.44,1.92-3.47C67.32,67,65,67.83,65,66.63S72.6,61.87,72.6,51.21Zm-18-22.94H36l-3.18-6.72H57.74Z" style="fill:#fff"/></symbol><symbol id="Queen" data-name="Queen" viewBox="0 0 102.56 212.81"><path d="M95.12,202.74a5.22,5.22,0,0,0-2.46-.59H9.89a5.21,5.21,0,0,0-2.45.59,4.68,4.68,0,0,0-2.72,4.07c0,3.59,5.06,6,10.66,6H87.17c5.61,0,10.67-2.41,10.67-6A4.68,4.68,0,0,0,95.12,202.74Z" style="fill:#fff"/><path d="M101.63,191.52c-5.82-6.12-6.24-8.2-10-14.25-4-6.5-17.5-22.58-19-43.64-2-28.71-5-32.36,6.46-46,1.08-1.09,1-4-3.13-4H26.56c-4.13,0-4.21,2.91-3.13,4,11.5,13.62,8.51,17.27,6.46,46-1.5,21.06-15,37.14-19,43.64-3.72,6-4.14,8.13-10,14.25-1.95,2.06-.75,6.63,2.75,6.63h95.2C102.38,198.15,103.58,193.58,101.63,191.52Z" style="fill:#fff"/><path d="M76.65,77.1c0-2-4-3.15-6-6.56a2.79,2.79,0,0,0-2.42-1.35h-34a2.79,2.79,0,0,0-2.42,1.35c-2,3.41-6,4.56-6,6.56,0,1.67-.08,2.67,2.34,2.67H74.32C76.74,79.77,76.65,78.77,76.65,77.1Z" style="fill:#fff"/><path d="M52.9,46.37c5.31,0,6-7.93,9.87-7.93s7.34,6.16,10.13,5.08,5.24-4.68,7-5.37,5.22-.59,4.09,3.41c-.86,3.06-8.57,15.23-12.17,20.81a6.15,6.15,0,0,1-5.18,2.82H35.88a6.14,6.14,0,0,1-5.17-2.82c-3.6-5.58-11.32-17.75-12.17-20.81-1.13-4,2.3-4.11,4.09-3.41s4.24,4.29,7,5.37,6.21-5.08,10.13-5.08,4.56,7.93,9.87,7.93Z" style="fill:#fff"/><path d="M71.64,21.58c3.25,5.12,2.49,15.18,1.5,16.17-2.87,2.87-5.51-3.5-11-3.5s-5,7.34-10.86,7.34c-6.08,0-4.67-7.34-10.87-7.34s-8.12,6.37-11,3.5c-1-1-1.75-11,1.5-16.17,0,0,4.93-11.52,20.37-11.52S71.64,21.58,71.64,21.58Z" style="fill:#fff"/><circle cx="50.72" cy="4.12" r="4.12" style="fill:#fff"/></symbol><symbol id="King" data-name="King" viewBox="0 0 111.04 251.56"><path d="M103.17,233.44H7.88c-8.09,0-7.88,6.37-7.88,10.62s-.12,7.5,7.38,7.5h96.29c7.5,0,7.37-3.25,7.37-7.5S111.25,233.44,103.17,233.44Z" style="fill:#fff"/><path d="M104.31,220.94c-2.83-2.13-16.62-8.34-23.25-17.59s-8.58-12.75-8.58-44.91v-34.5c0-2.21,8-2,8-6.42s-2.67-4.83-8-4.83H38.56c-5.33,0-8,.41-8,4.83s8,4.21,8,6.42v34.5c0,32.16-2,35.66-8.58,44.91S9.56,218.81,6.73,220.94s-4.42,8.5,0,8.5h97.58C108.73,229.44,107.15,223.06,104.31,220.94Z" style="fill:#fff"/><rect x="33.98" y="102.94" width="43.08" height="5.75" rx="2.87" ry="2.87" style="fill:#fff"/><path d="M86,47.73c.36-3.67,2.5-7.92-5.75-7.92H30.79c-8.25,0-6.11,4.25-5.75,7.92S35,78.7,36.45,82.81s3.28,8.36.48,9.38-2.87,2.29-2.87,3.87a2.89,2.89,0,0,0,2.87,2.88H74.11A2.89,2.89,0,0,0,77,96.06c0-1.58-.08-2.85-2.87-3.87s-1-5.27.48-9.38S85.64,51.46,86,47.73Z" style="fill:#fff"/><path d="M67.63,21.48c-3.71-2.45-6.8-4.63-10.58-5.07v-4.1h7.13V6H58.77V0h-6.5V6H46.86v6.31H54v4.1c-3.77.44-6.86,2.62-10.58,5.07-4.17,2.75-3.58,4-3.58,5.42s.25,2.58,1.83,4.66a5.26,5.26,0,0,1,1,4.25H68.38a5.26,5.26,0,0,1,1-4.25c1.59-2.08,1.84-3.25,1.84-4.66S71.8,24.23,67.63,21.48Z" style="fill:#fff"/></symbol></defs><title>chess_figures</title><g id="Layer_2" data-name="Layer 2"><g id="Layer_1-2" data-name="Layer 1"><use width="76.88" height="133.32" transform="translate(623.45 118.23)" xlink:href="#Pawn"/><use width="75.08" height="134.08" transform="translate(517.85 117.48)" xlink:href="#Rock"/><use width="96.44" height="160.34" transform="translate(396.9 91.23)" xlink:href="#Knight"/><use width="90.56" height="194" transform="translate(275.06 57.56)" xlink:href="#Bishop"/><use width="102.56" height="212.81" transform="translate(140.91 38.75)" xlink:href="#Queen"/><use width="111.04" height="251.56" xlink:href="#King"/><rect id="spacer" x="700.32" y="233.44" width="31.6" height="18.13" style="fill:none"/></g></g></svg>