<svg xmlns="http://www.w3.org/2000/svg" viewBox="0 0 700.32 251.56"><title>chess_figures</title><g id="Layer_2" data-name="Layer 2"><g id="Layer_1-2" data-name="Layer 1"><path d="M675.14,190.28v-14a3,3,0,0,0-3-3H651.61a3,3,0,0,0-3,3v14a35,35,0,0,1-2.39,10.86,3,3,0,0,0,2.73,4.14h25.81a3,3,0,0,0,2.73-4.14A34.89,34.89,0,0,1,675.14,190.28Z" style="fill:#fff"/><path d="M682.76,163.79h-1.92s-5.67-.07-7.58-1.68a1.8,1.8,0,0,0-1.18-.48H651.69a1.8,1.8,0,0,0-1.18.48c-1.91,1.61-7.58,1.68-7.58,1.68H641s-2.33-.16-2.33,2.92,2.58,2.58,2.58,2.58h18.5v0l2.13,0,2.12,0v0h18.5s2.58.5,2.58-2.58S682.76,163.79,682.76,163.79Z" style="fill:#fff"/><path d="M677.86,123.36c-5.45-5.54-13.82-5.12-16-5.12-1.83,0-10.58-.42-16,5.12-6.14,6.25-5.49,9.88-5.49,15.63s3.51,17.27,12.42,18.37a59,59,0,0,0,9.1.2c4.17,0,5.74.22,9.1-.2,8.92-1.1,12.43-12.62,12.43-18.37S684,129.61,677.86,123.36Z" style="fill:#fff"/><path d="M695.33,239.66c1.65.28,5,1.3,5,4.89,0,3.42-2.26,4.38-3.53,4.65a1,1,0,0,0-.84,1v.26a1.06,1.06,0,0,1-1.06,1.06h-66a1.06,1.06,0,0,1-1.06-1.06v-.26a1,1,0,0,0-.84-1c-1.27-.27-3.53-1.23-3.53-4.65,0-3.59,3.35-4.61,5-4.89Z" style="fill:#fff"/><path d="M693.36,224.33a1.21,1.21,0,0,1-.47-.23l-7.38-6.52a2.71,2.71,0,0,1-.91-2V212a2.68,2.68,0,0,0-2.68-2.68H641.85a2.68,2.68,0,0,0-2.68,2.68v3.61a2.67,2.67,0,0,1-.91,2l-7.38,6.52a1.09,1.09,0,0,1-.47.23c-.95.23-4.24,1.34-4.24,5.83,0,4.05,1.62,5.49,10.12,5.49h51.19c8.5,0,10.12-1.44,10.12-5.49C697.6,225.67,694.31,224.56,693.36,224.33Z" style="fill:#fff"/><path d="M577.83,117.48h-8a1.5,1.5,0,0,0-1.5,1.5v7.83a1.5,1.5,0,0,1-1.5,1.5h-.66a1.5,1.5,0,0,1-1.5-1.5V119a1.5,1.5,0,0,0-1.5-1.5H547.63a1.5,1.5,0,0,0-1.5,1.5v7.83a1.51,1.51,0,0,1-1.51,1.5H544a1.5,1.5,0,0,1-1.5-1.5V119a1.5,1.5,0,0,0-1.5-1.5h-8a1.5,1.5,0,0,0-1.5,1.5v15.5A1.5,1.5,0,0,0,533,136h5.45a1.5,1.5,0,0,1,1.47,1.83h0a1.5,1.5,0,0,0,1.46,1.84h28.11a1.51,1.51,0,0,0,1.47-1.84h0a1.49,1.49,0,0,1,1.46-1.83h5.45a1.5,1.5,0,0,0,1.5-1.5V119A1.5,1.5,0,0,0,577.83,117.48Z" style="fill:#fff"/><path d="M570.25,145.15a2.08,2.08,0,0,0-2.07-1.88H542.62a2.09,2.09,0,0,0-2.08,1.88L534,210.48a2.08,2.08,0,0,0,2.07,2.29h38.73a2.09,2.09,0,0,0,2.08-2.29Z" style="fill:#fff"/><path d="M585.49,224.85a6.8,6.8,0,0,1-4.87-5.71,2.92,2.92,0,0,0-2.9-2.37H532.56a2.92,2.92,0,0,0-2.9,2.37,6.8,6.8,0,0,1-4.87,5.71c-5.66,1.67-5.16,5.92-5.16,5.92a4.75,4.75,0,0,0,5.09,4.75h60.85a4.76,4.76,0,0,0,5.09-4.75S591.16,226.52,585.49,224.85Z" style="fill:#fff"/><path d="M590.22,242.58l-2.4-2.53a1.27,1.27,0,0,0-.94-.4h-63a1.29,1.29,0,0,0-.94.4l-2.4,2.53a1.14,1.14,0,0,1-.45.31,3.32,3.32,0,0,0-2.27,3.09,2.65,2.65,0,0,0,2.67,3,1.27,1.27,0,0,1,1.08,1.28h0a1.28,1.28,0,0,0,1.29,1.28h65a1.28,1.28,0,0,0,1.29-1.28h0a1.28,1.28,0,0,1,1.09-1.28,2.65,2.65,0,0,0,2.66-3,3.32,3.32,0,0,0-2.27-3.09A1.14,1.14,0,0,1,590.22,242.58Z" style="fill:#fff"/><path d="M485.31,222.08a4.44,4.44,0,0,0-3.56-1.64H403.57a4.57,4.57,0,0,0-3.81,2,5.37,5.37,0,0,0-.2,6.16A21.47,21.47,0,0,1,401.2,231a4.63,4.63,0,0,0,4.08,2.29H480a4.61,4.61,0,0,0,4.07-2.29,24.56,24.56,0,0,1,1.64-2.46A5.45,5.45,0,0,0,485.31,222.08Z" style="fill:#fff"/><path d="M485,238.18a2.85,2.85,0,0,0-2.08-.87H402.43a2.88,2.88,0,0,0-2.09.87c-1.25,1.31-3.44,3.75-3.44,4.88s4.31,4.85,6.3,6.47a2.6,2.6,0,0,1,1,2h76.92a2.6,2.6,0,0,1,1-2c2-1.62,6.3-5.25,6.3-6.47S486.21,239.49,485,238.18Z" style="fill:#fff"/><path d="M481.55,211.23c-4.63,0-7.88-1.88-7.88-4.25s10.38-9,4.13-9H407.5c-6.25,0,4.12,6.62,4.12,9s-3.25,4.25-7.87,4.25-5.88,5.21,0,5.21h77.8C487.42,216.44,486.17,211.23,481.55,211.23Z" style="fill:#fff"/><path d="M493,139.31c-1.87-1.87-23.09-25.17-25.24-41.83a1.09,1.09,0,0,1,0-.18c-.06-3.8,0-4.81-.87-5.7a1.27,1.27,0,0,0-2.15.66,11.64,11.64,0,0,0-.16,3.12,1.24,1.24,0,0,1-.74,1.25,12.47,12.47,0,0,1-4.83,1.1c-3,0-4.74-4.91-10.25-2.75-16.33,6.4-30.67,17.73-33.67,57.21v40.53a1.27,1.27,0,0,0,1.27,1.26h56.3a1.27,1.27,0,0,0,1.27-1.26V190a3.1,3.1,0,0,0-1.56-2.53c-3.31-1.64-10.71-6.49-15.28-21.16-5.56-17.87-5-20.59-5-28.19a1.24,1.24,0,0,1,.69-1.12,1.26,1.26,0,0,1,1.81,1.24c-.29,3.34-.27,8.8,2.83,9.49,4.5,1,16.33.58,18,.58s2.5,5.34,8,5.34S494.86,141.19,493,139.31ZM466.9,115.44c-3.17,1.41-5-2.75-5.25-3.75s1.8-3.35,5.25-.59C468,111.94,470.06,114,466.9,115.44Z" style="fill:#fff"/><path d="M365.19,243.77c-.49-1.87-2-2.08-3.13-2.08H278.63c-1.13,0-2.64.21-3.13,2.08a25.71,25.71,0,0,0-.44,4.36,3.3,3.3,0,0,0,3.31,3.43h83.95a3.29,3.29,0,0,0,3.3-3.43A24.85,24.85,0,0,0,365.19,243.77Z" style="fill:#fff"/><path d="M361.91,230.06c-1.36-.24-9-1.83-12.61-6.22a5,5,0,0,0-3.89-1.78H295.28a5,5,0,0,0-3.89,1.78c-3.61,4.39-11.25,6-12.61,6.22-2.12.38-3.54.42-3.54,4.84,0,2.1,1.46,3,4.13,3h81.95c2.67,0,4.13-.9,4.13-3C365.45,230.48,364,230.44,361.91,230.06Z" style="fill:#fff"/><path d="M337.8,200.62a2.17,2.17,0,0,0-1.91-1.14h-31.1a2.17,2.17,0,0,0-1.9,1.14c-2.34,4.42-7,7-9.21,8.07a2.18,2.18,0,0,0-1.25,2v5.24h0a2.16,2.16,0,0,0,2.16,2.16h51.5a2.17,2.17,0,0,0,2.17-2.16h0v-5.24a2.18,2.18,0,0,0-1.25-2C344.78,207.65,340.14,205,337.8,200.62Z" style="fill:#fff"/><path d="M335.32,156.3a3.06,3.06,0,0,0-3.05-3H308.42a3.06,3.06,0,0,0-3.05,3l-1.17,36a3,3,0,0,0,3,3.15h26.21a3,3,0,0,0,3-3.15Z" style="fill:#fff"/><path d="M346.64,140.6a10.7,10.7,0,0,1-2.14-.17,1,1,0,0,1,0-2A2,2,0,0,0,346,136.6c0-.83-.75-2-2.92-2H297.64c-2.17,0-2.92,1.17-2.92,2a2,2,0,0,0,1.51,1.81,1,1,0,0,1,0,2,10.7,10.7,0,0,1-2.14.17c-3.8,0-8.16,2.34-8.16,5.59s2.25,3.16,6.91,3.16h55.09c4.66,0,6.91.09,6.91-3.16S350.44,140.6,346.64,140.6Z" style="fill:#fff"/><path d="M347.66,108.77c0-10.67-16.55-37.29-16.55-37.29a2.88,2.88,0,0,1,.6-3.11c1.36-1.36,2.46-9-4.32-10.26l-.07-.07a47.37,47.37,0,0,0-6.49-.48h-1a47.37,47.37,0,0,0-6.49.48l-.07.07c-6.78,1.26-5.68,8.9-4.32,10.26a2.9,2.9,0,0,1,.6,3.11S293,98.1,293,108.77s7.55,14.22,7.55,15.42-2.27.36-2.27,3.12c0,2,.24,3.48,1.91,3.48h40.24c1.68,0,1.92-1.44,1.92-3.48,0-2.76-2.27-1.92-2.27-3.12S347.66,119.44,347.66,108.77Zm-18-22.93H311.06l-3.18-6.72h24.93Z" style="fill:#fff"/><path d="M236,241.49a5.22,5.22,0,0,0-2.46-.59H150.8a5.21,5.21,0,0,0-2.45.59,4.68,4.68,0,0,0-2.72,4.07c0,3.59,5.06,6,10.66,6h71.79c5.61,0,10.67-2.41,10.67-6A4.68,4.68,0,0,0,236,241.49Z" style="fill:#fff"/><path d="M242.53,230.27c-5.81-6.12-6.23-8.2-9.95-14.25-4-6.5-17.5-22.58-19-43.64-2.05-28.71-5.05-32.36,6.45-46,1.09-1.09,1-4-3.12-4H167.47c-4.13,0-4.21,2.91-3.13,4,11.5,13.62,8.5,17.27,6.46,46-1.5,21.06-15,37.14-19,43.64-3.72,6-4.15,8.13-10,14.25-2,2.06-.75,6.63,2.75,6.63h95.19C243.28,236.9,244.48,232.33,242.53,230.27Z" style="fill:#fff"/><path d="M217.56,115.85c0-2-4-3.15-6-6.56a2.76,2.76,0,0,0-2.41-1.35h-34a2.79,2.79,0,0,0-2.42,1.35c-2,3.41-6,4.56-6,6.56,0,1.67-.08,2.67,2.34,2.67h46.08C217.65,118.52,217.56,117.52,217.56,115.85Z" style="fill:#fff"/><path d="M193.81,85.12c5.31,0,5.95-7.93,9.87-7.93s7.33,6.16,10.13,5.08,5.24-4.68,7-5.37,5.22-.59,4.09,3.41c-.86,3.06-8.57,15.23-12.17,20.81a6.15,6.15,0,0,1-5.18,2.82H176.79a6.14,6.14,0,0,1-5.17-2.82c-3.6-5.58-11.32-17.75-12.18-20.81-1.12-4,2.31-4.11,4.1-3.41s4.24,4.29,7,5.37,6.21-5.08,10.12-5.08,4.57,7.93,9.88,7.93Z" style="fill:#fff"/><path d="M212.55,60.33c3.25,5.12,2.48,15.18,1.5,16.17-2.87,2.87-5.51-3.5-11-3.5s-5,7.34-10.86,7.34c-6.08,0-4.67-7.34-10.87-7.34s-8.12,6.37-11,3.5c-1-1-1.75-11,1.5-16.17,0,0,4.93-11.52,20.37-11.52S212.55,60.33,212.55,60.33Z" style="fill:#fff"/><circle cx="191.63" cy="42.87" r="4.12" style="fill:#fff"/><path d="M103.17,233.44H7.88c-8.09,0-7.88,6.37-7.88,10.62s-.12,7.5,7.38,7.5h96.29c7.5,0,7.37-3.25,7.37-7.5S111.25,233.44,103.17,233.44Z" style="fill:#fff"/><path d="M104.31,220.94c-2.83-2.13-16.62-8.34-23.25-17.59s-8.58-12.75-8.58-44.91v-34.5c0-2.21,8-2,8-6.42s-2.67-4.83-8-4.83H38.56c-5.33,0-8,.41-8,4.83s8,4.21,8,6.42v34.5c0,32.16-2,35.66-8.58,44.91S9.56,218.81,6.73,220.94s-4.42,8.5,0,8.5h97.58C108.73,229.44,107.15,223.06,104.31,220.94Z" style="fill:#fff"/><rect x="33.98" y="102.94" width="43.08" height="5.75" rx="2.87" ry="2.87" style="fill:#fff"/><path d="M86,47.73c.36-3.67,2.5-7.92-5.75-7.92H30.79c-8.25,0-6.11,4.25-5.75,7.92S35,78.7,36.45,82.81s3.28,8.36.48,9.38-2.87,2.29-2.87,3.87a2.89,2.89,0,0,0,2.87,2.88H74.11A2.89,2.89,0,0,0,77,96.06c0-1.58-.08-2.85-2.87-3.87s-1-5.27.48-9.38S85.64,51.46,86,47.73Z" style="fill:#fff"/><path d="M67.63,21.48c-3.71-2.45-6.8-4.63-10.58-5.07v-4.1h7.13V6H58.77V0h-6.5V6H46.86v6.31H54v4.1c-3.77.44-6.86,2.62-10.58,5.07-4.17,2.75-3.58,4-3.58,5.42s.25,2.58,1.83,4.66a5.26,5.26,0,0,1,1,4.25H68.38a5.26,5.26,0,0,1,1-4.25c1.59-2.08,1.84-3.25,1.84-4.66S71.8,24.23,67.63,21.48Z" style="fill:#fff"/></g></g></svg>