<svg xmlns="http://www.w3.org/2000/svg" viewBox="0 0 700.32 252.94"><title>chess_figures</title><g id="Layer_2" data-name="Layer 2"><g id="Layer_1-2" data-name="Layer 1"><path d="M675.14,191.66v-14a3,3,0,0,0-3-3H651.61a3,3,0,0,0-3,3v14a35,35,0,0,1-2.39,10.86,3,3,0,0,0,2.73,4.14h25.81a3,3,0,0,0,2.73-4.14A34.89,34.89,0,0,1,675.14,191.66Z" style="fill:#fff"/><path d="M682.76,165.17h-1.92s-5.67-.07-7.58-1.69a1.85,1.85,0,0,0-1.18-.48H651.69a1.85,1.85,0,0,0-1.18.48c-1.91,1.62-7.58,1.69-7.58,1.69H641s-2.33-.17-2.33,2.92,2.58,2.58,2.58,2.58h18.5v0l2.13,0,2.12,0v0h18.5s2.58.5,2.58-2.58S682.76,165.17,682.76,165.17Z" style="fill:#fff"/><path d="M677.86,124.74c-5.45-5.54-13.82-5.13-16-5.13-1.83,0-10.58-.41-16,5.13-6.14,6.25-5.49,9.87-5.49,15.62s3.51,17.28,12.42,18.38a207.12,207.12,0,0,0,18.2,0c8.92-1.1,12.43-12.63,12.43-18.38S684,131,677.86,124.74Z" style="fill:#fff"/><path d="M695.33,241c1.65.29,5,1.31,5,4.9a4.29,4.29,0,0,1-3.53,4.64,1,1,0,0,0-.84,1v.27a1.07,1.07,0,0,1-1.06,1.06h-66a1.07,1.07,0,0,1-1.06-1.06v-.27a1,1,0,0,0-.84-1,4.29,4.29,0,0,1-3.53-4.64c0-3.59,3.35-4.61,5-4.9Z" style="fill:#fff"/><path d="M693.36,225.71a1.11,1.11,0,0,1-.47-.24L685.51,219a2.71,2.71,0,0,1-.91-2v-3.61a2.68,2.68,0,0,0-2.68-2.68H641.85a2.68,2.68,0,0,0-2.68,2.68V217a2.67,2.67,0,0,1-.91,2l-7.38,6.51a1,1,0,0,1-.47.24c-.95.23-4.24,1.33-4.24,5.82,0,4.05,1.62,5.49,10.12,5.49h51.19c8.5,0,10.12-1.44,10.12-5.49C697.6,227,694.31,225.94,693.36,225.71Z" style="fill:#fff"/><path d="M577.83,118.85h-8a1.51,1.51,0,0,0-1.5,1.5v7.84a1.5,1.5,0,0,1-1.5,1.5h-.66a1.5,1.5,0,0,1-1.5-1.5v-7.84a1.5,1.5,0,0,0-1.5-1.5H547.63a1.5,1.5,0,0,0-1.5,1.5v7.84a1.51,1.51,0,0,1-1.51,1.5H544a1.5,1.5,0,0,1-1.5-1.5v-7.84a1.5,1.5,0,0,0-1.5-1.5h-8a1.5,1.5,0,0,0-1.5,1.5v15.5a1.5,1.5,0,0,0,1.5,1.5h5.45a1.51,1.51,0,0,1,1.47,1.84h0a1.49,1.49,0,0,0,1.46,1.83h28.11a1.5,1.5,0,0,0,1.47-1.83h0a1.5,1.5,0,0,1,1.46-1.84h5.45a1.5,1.5,0,0,0,1.5-1.5v-15.5A1.5,1.5,0,0,0,577.83,118.85Z" style="fill:#fff"/><path d="M570.25,146.52a2.08,2.08,0,0,0-2.07-1.87H542.62a2.09,2.09,0,0,0-2.08,1.87L534,211.86a2.09,2.09,0,0,0,2.07,2.29h38.73a2.09,2.09,0,0,0,2.08-2.29Z" style="fill:#fff"/><path d="M585.49,226.23a6.8,6.8,0,0,1-4.87-5.72,2.92,2.92,0,0,0-2.9-2.36H532.56a2.92,2.92,0,0,0-2.9,2.36,6.8,6.8,0,0,1-4.87,5.72c-5.66,1.67-5.16,5.92-5.16,5.92a4.75,4.75,0,0,0,5.09,4.75h60.85a4.76,4.76,0,0,0,5.09-4.75S591.16,227.9,585.49,226.23Z" style="fill:#fff"/><path d="M590.22,244l-2.4-2.54a1.31,1.31,0,0,0-.94-.4h-63a1.32,1.32,0,0,0-.94.4l-2.4,2.54a1.39,1.39,0,0,1-.45.31,3.29,3.29,0,0,0-2.27,3.08,2.66,2.66,0,0,0,2.67,3,1.26,1.26,0,0,1,1.08,1.27h0a1.29,1.29,0,0,0,1.29,1.29h65a1.29,1.29,0,0,0,1.29-1.29h0a1.27,1.27,0,0,1,1.09-1.27,2.65,2.65,0,0,0,2.66-3,3.29,3.29,0,0,0-2.27-3.08A1.39,1.39,0,0,1,590.22,244Z" style="fill:#fff"/><path d="M485.31,223.46a4.45,4.45,0,0,0-3.56-1.65H403.57a4.57,4.57,0,0,0-3.81,2,5.38,5.38,0,0,0-.2,6.17,20.63,20.63,0,0,1,1.64,2.46,4.65,4.65,0,0,0,4.08,2.29H480a4.63,4.63,0,0,0,4.07-2.29,23.46,23.46,0,0,1,1.64-2.46A5.45,5.45,0,0,0,485.31,223.46Z" style="fill:#fff"/><path d="M485,239.56a2.85,2.85,0,0,0-2.08-.87H402.43a2.88,2.88,0,0,0-2.09.87c-1.25,1.31-3.44,3.75-3.44,4.88s4.31,4.85,6.3,6.46a2.62,2.62,0,0,1,1,2h76.92a2.62,2.62,0,0,1,1-2c2-1.61,6.3-5.25,6.3-6.46S486.21,240.87,485,239.56Z" style="fill:#fff"/><path d="M481.55,212.6c-4.63,0-7.88-1.87-7.88-4.25s10.38-9,4.13-9H407.5c-6.25,0,4.12,6.63,4.12,9s-3.25,4.25-7.87,4.25-5.88,5.21,0,5.21h77.8C487.42,217.81,486.17,212.6,481.55,212.6Z" style="fill:#fff"/><path d="M493,140.69c-1.87-1.87-23.09-25.17-25.24-41.83a1.09,1.09,0,0,1,0-.18c-.06-3.81,0-4.81-.87-5.71a1.28,1.28,0,0,0-2.15.66,11.71,11.71,0,0,0-.16,3.13,1.26,1.26,0,0,1-.74,1.25A12.68,12.68,0,0,1,459,99.1c-3,0-4.74-4.9-10.25-2.75-16.33,6.4-30.67,17.73-33.67,57.21v40.53a1.26,1.26,0,0,0,1.27,1.26h56.3a1.26,1.26,0,0,0,1.27-1.26v-2.72a3.1,3.1,0,0,0-1.56-2.53c-3.31-1.64-10.71-6.49-15.28-21.15-5.56-17.88-5-20.59-5-28.2a1.22,1.22,0,0,1,.69-1.11,1.25,1.25,0,0,1,1.81,1.23c-.29,3.34-.27,8.81,2.83,9.49,4.5,1,16.33.59,18,.59s2.5,5.33,8,5.33S494.86,142.56,493,140.69ZM466.9,116.81c-3.17,1.42-5-2.75-5.25-3.75s1.8-3.34,5.25-.58C468,113.32,470.06,115.39,466.9,116.81Z" style="fill:#fff"/><path d="M365.19,245.15c-.49-1.87-2-2.09-3.13-2.09H278.63c-1.13,0-2.64.22-3.13,2.09a25.48,25.48,0,0,0-.44,4.36,3.31,3.31,0,0,0,3.31,3.43h83.95a3.3,3.3,0,0,0,3.3-3.43A24.64,24.64,0,0,0,365.19,245.15Z" style="fill:#fff"/><path d="M361.91,231.44c-1.36-.24-9-1.83-12.61-6.23a5,5,0,0,0-3.89-1.77H295.28a5,5,0,0,0-3.89,1.77c-3.61,4.4-11.25,6-12.61,6.23-2.12.37-3.54.41-3.54,4.83,0,2.11,1.46,3,4.13,3h81.95c2.67,0,4.13-.89,4.13-3C365.45,231.85,364,231.81,361.91,231.44Z" style="fill:#fff"/><path d="M337.8,202a2.16,2.16,0,0,0-1.91-1.15h-31.1a2.16,2.16,0,0,0-1.9,1.15c-2.34,4.42-7,7-9.21,8.07a2.17,2.17,0,0,0-1.25,2v5.24h0a2.17,2.17,0,0,0,2.16,2.17h51.5a2.17,2.17,0,0,0,2.17-2.17h0V212a2.17,2.17,0,0,0-1.25-2C344.78,209,340.14,206.42,337.8,202Z" style="fill:#fff"/><path d="M335.32,157.68a3,3,0,0,0-3.05-3H308.42a3,3,0,0,0-3.05,3l-1.17,36a3,3,0,0,0,3,3.14h26.21a3,3,0,0,0,3-3.14Z" style="fill:#fff"/><path d="M346.64,142a10.7,10.7,0,0,1-2.14-.17,1,1,0,0,1,0-2A2,2,0,0,0,346,138c0-.83-.75-2-2.92-2H297.64c-2.17,0-2.92,1.17-2.92,2a2,2,0,0,0,1.51,1.8,1,1,0,0,1,0,2,10.7,10.7,0,0,1-2.14.17c-3.8,0-8.16,2.33-8.16,5.58s2.25,3.17,6.91,3.17h55.09c4.66,0,6.91.08,6.91-3.17S350.44,142,346.64,142Z" style="fill:#fff"/><path d="M347.66,110.14c0-10.67-16.55-37.28-16.55-37.28a2.9,2.9,0,0,1,.6-3.12c1.36-1.35,2.46-9-4.32-10.25l-.07-.08a46.56,46.56,0,0,0-6.49-.47h-1a46.56,46.56,0,0,0-6.49.47l-.07.08c-6.78,1.26-5.68,8.9-4.32,10.25a2.92,2.92,0,0,1,.6,3.12S293,99.47,293,110.14s7.55,14.23,7.55,15.43-2.27.36-2.27,3.11c0,2,.24,3.48,1.91,3.48h40.24c1.68,0,1.92-1.44,1.92-3.48,0-2.75-2.27-1.91-2.27-3.11S347.66,120.81,347.66,110.14Zm-18-22.93H311.06l-3.18-6.72h24.93Z" style="fill:#fff"/><path d="M236,242.87a5.12,5.12,0,0,0-2.46-.6H150.8a5.1,5.1,0,0,0-2.45.6,4.65,4.65,0,0,0-2.72,4.07c0,3.58,5.06,6,10.66,6h71.79c5.61,0,10.67-2.42,10.67-6A4.65,4.65,0,0,0,236,242.87Z" style="fill:#fff"/><path d="M242.53,231.65c-5.81-6.13-6.23-8.2-9.95-14.25-4-6.5-17.5-22.59-19-43.65-2.05-28.71-5.05-32.35,6.45-46,1.09-1.08,1-4-3.12-4H167.47c-4.13,0-4.21,2.92-3.13,4,11.5,13.63,8.5,17.27,6.46,46-1.5,21.06-15,37.15-19,43.65-3.72,6-4.15,8.12-10,14.25-2,2-.75,6.62,2.75,6.62h95.19C243.28,238.27,244.48,233.7,242.53,231.65Z" style="fill:#fff"/><path d="M217.56,117.23c0-2-4-3.15-6-6.57a2.76,2.76,0,0,0-2.41-1.35h-34a2.79,2.79,0,0,0-2.42,1.35c-2,3.42-6,4.56-6,6.57,0,1.67-.08,2.67,2.34,2.67h46.08C217.65,119.9,217.56,118.9,217.56,117.23Z" style="fill:#fff"/><path d="M193.81,86.5c5.31,0,5.95-7.94,9.87-7.94s7.33,6.17,10.13,5.09,5.24-4.68,7-5.38,5.22-.58,4.09,3.42c-.86,3-8.57,15.23-12.17,20.8a6.15,6.15,0,0,1-5.18,2.82H176.79a6.14,6.14,0,0,1-5.17-2.82c-3.6-5.57-11.32-17.75-12.18-20.8-1.12-4,2.31-4.12,4.1-3.42s4.24,4.29,7,5.38,6.21-5.09,10.12-5.09,4.57,7.94,9.88,7.94Z" style="fill:#fff"/><path d="M212.55,61.7c3.25,5.13,2.48,15.19,1.5,16.17-2.87,2.88-5.51-3.5-11-3.5s-5,7.34-10.86,7.34c-6.08,0-4.67-7.34-10.87-7.34s-8.12,6.38-11,3.5c-1-1-1.75-11,1.5-16.17,0,0,4.93-11.52,20.37-11.52S212.55,61.7,212.55,61.7Z" style="fill:#fff"/><circle cx="191.63" cy="44.25" r="4.12" style="fill:#fff"/><path d="M103.17,233.44H7.88c-8.09,0-7.88,6.37-7.88,10.62s-.12,7.5,7.38,7.5h96.29c7.5,0,7.37-3.25,7.37-7.5S111.25,233.44,103.17,233.44Z" style="fill:#fff"/><path d="M104.31,220.94c-2.83-2.13-16.62-8.34-23.25-17.59s-8.58-12.75-8.58-44.91v-34.5c0-2.21,8-2,8-6.42s-2.67-4.83-8-4.83H38.56c-5.33,0-8,.41-8,4.83s8,4.21,8,6.42v34.5c0,32.16-2,35.66-8.58,44.91S9.56,218.81,6.73,220.94s-4.42,8.5,0,8.5h97.58C108.73,229.44,107.15,223.06,104.31,220.94Z" style="fill:#fff"/><rect x="33.98" y="102.94" width="43.08" height="5.75" rx="2.87" ry="2.87" style="fill:#fff"/><path d="M86,47.73c.36-3.67,2.5-7.92-5.75-7.92H30.79c-8.25,0-6.11,4.25-5.75,7.92S35,78.7,36.45,82.81s3.28,8.36.48,9.38-2.87,2.29-2.87,3.87a2.89,2.89,0,0,0,2.87,2.88H74.11A2.89,2.89,0,0,0,77,96.06c0-1.58-.08-2.85-2.87-3.87s-1-5.27.48-9.38S85.64,51.46,86,47.73Z" style="fill:#fff"/><path d="M67.63,21.48c-3.71-2.45-6.8-4.63-10.58-5.07v-4.1h7.13V6H58.77V0h-6.5V6H46.86v6.31H54v4.1c-3.77.44-6.86,2.62-10.58,5.07-4.17,2.75-3.58,4-3.58,5.42s.25,2.58,1.83,4.66a5.26,5.26,0,0,1,1,4.25H68.38a5.26,5.26,0,0,1,1-4.25c1.59-2.08,1.84-3.25,1.84-4.66S71.8,24.23,67.63,21.48Z" style="fill:#fff"/></g></g></svg>