# Blender v2.81 (sub 16) OBJ File: 'chess_set_raw.blend'
# www.blender.org
o Cube.014_Cube.026
v 9.334035 -0.957318 4.259614
v 9.933413 -0.893491 4.488235
v 9.324965 -1.335113 3.583262
v 8.805158 -1.016017 3.236244
v 8.741833 -0.860882 3.387840
v 9.000108 -0.839218 3.887497
v 8.796757 -0.635925 3.550090
v 8.913413 -0.914949 3.599000
v 8.698656 -0.394302 3.544244
v 9.783325 -1.314439 3.715255
v 9.963024 -1.257388 3.115704
v 10.292265 -0.942265 2.747448
v 10.371632 -0.795559 2.558111
v 10.445393 -0.713136 2.847034
v 9.021859 -0.685447 4.177007
v 9.491841 -0.608118 4.740439
v 9.550248 -0.738215 4.689283
v 9.856073 -0.813903 4.614126
v 9.823789 -0.484886 4.724381
v 10.005233 -0.075605 4.541190
v 8.633876 -0.144225 3.940634
v 8.739299 0.007063 4.332293
v 8.897927 -0.200561 4.457197
v 8.584933 -0.157749 3.635726
v 8.817524 -0.503880 3.933415
v 8.674008 -0.007343 4.171641
v 8.872985 0.613164 4.048531
v 9.868026 0.169585 4.405077
v 9.855501 0.410576 4.282013
v 10.647383 -0.229585 3.601314
v 10.102465 0.010999 4.423283
v 10.609776 0.294370 3.757279
v 10.682439 0.286880 3.650788
v 10.101423 0.194447 4.327232
v 10.242626 0.164928 4.255044
v 10.646146 0.507692 3.460930
v 9.440845 -1.275267 3.008294
v 8.845879 -0.821209 2.204087
v 8.707889 -0.775366 2.303298
v 9.135562 -0.567095 1.924436
v 8.563060 -0.401783 3.215329
v 8.572693 -0.265404 3.355616
v 8.397868 -0.012310 2.934746
v 8.429927 0.046345 3.074420
v 8.422508 -0.072548 2.351568
v 9.081587 -0.363422 1.895083
v 9.099894 -0.210213 1.840343
v 8.360231 0.082533 2.608459
v 8.705914 0.440565 2.148269
v 8.636496 0.631550 2.465576
v 8.499881 0.036062 2.257843
v 8.646864 0.219491 2.093122
v 9.214378 0.623403 2.076165
v 10.306052 -0.587940 2.243750
v 9.355000 -0.540298 1.933669
v 9.536213 -0.479177 1.891692
v 10.470817 0.301706 2.764718
v 9.273342 -0.173577 1.807520
v 10.367641 0.120009 2.368126
v 9.459889 0.639883 2.006887
v 9.592786 0.808497 2.087790
v 8.454188 0.033395 3.285643
v 8.496589 0.188440 3.433481
v 8.624128 0.778572 3.142380
v 8.506570 0.565617 3.051887
v 8.860282 0.731688 3.871909
v 9.040764 0.751504 4.003074
v 9.495745 0.871801 4.005668
v 8.444986 0.436772 2.788096
v 8.549253 0.677824 3.016848
v 8.720971 0.863529 2.737478
v 9.890376 0.961128 2.763729
v 10.423948 0.758699 3.298895
v 10.281301 0.771311 3.075074
v 10.074119 0.798946 2.790439
v 10.145650 0.843983 2.919409
v 10.246012 0.833381 3.383049
v 9.918811 0.970104 3.498571
v 9.765816 0.999555 3.597818
v 9.801679 1.040835 3.366323
v 9.784748 1.067856 3.166428
v 10.628091 0.581153 3.369720
v 9.696989 1.087885 2.879411
v 9.834411 0.985623 2.676980
v 9.700093 1.103377 2.669960
v 9.615850 1.105250 2.498559
v 9.383688 0.733296 2.118375
v 9.458078 1.076229 2.551795
vt 0.444960 0.496257
vt 0.487103 0.759750
vt 0.428887 0.670712
vt 0.500222 0.522861
vt 0.500223 0.726047
vt 0.158712 0.608906
vt 0.231968 0.731560
vt 0.165231 0.714624
vt 0.379135 0.816088
vt 0.293015 0.896280
vt 0.290980 0.790362
vt 0.366540 0.676415
vt 0.373464 0.738979
vt 0.057007 0.358049
vt 0.005374 0.335168
vt 0.045540 0.269150
vt 0.041471 0.437672
vt 0.021395 0.403599
vt 0.391025 0.773394
vt 0.473208 0.015457
vt 0.507249 0.016144
vt 0.490670 0.081693
vt 0.329031 0.084241
vt 0.636791 0.996730
vt 0.601442 0.999199
vt 0.527678 0.982338
vt 0.445835 0.781441
vt 0.305043 0.520948
vt 0.322627 0.496763
vt 0.312757 0.621281
vt 0.436837 0.816884
vt 0.003049 0.253245
vt 0.075261 0.222474
vt 0.096227 0.268574
vt 0.532259 0.662683
vt 0.577188 0.509130
vt 0.647694 0.768627
vt 0.508752 0.620084
vt 0.679922 0.618994
vt 0.609969 0.523742
vt 0.837391 0.501321
vt 0.859727 0.508323
vt 0.834315 0.539575
vt 0.849448 0.591378
vt 0.867085 0.539963
vt 0.886539 0.526513
vt 0.289270 0.338922
vt 0.384557 0.486724
vt 0.357585 0.485649
vt 0.494950 0.446611
vt 0.417439 0.493705
vt 0.473678 0.312774
vt 0.963902 0.519603
vt 0.965562 0.626227
vt 0.211446 0.469873
vt 0.139738 0.606358
vt 0.037755 0.489258
vt 0.411128 0.993473
vt 0.427836 0.967912
vt 0.107975 0.380771
vt 0.114466 0.325211
vt 0.176068 0.363121
vt 0.171391 0.322005
vt 0.284512 0.302588
vt 0.212913 0.398353
vt 0.735824 0.222654
vt 0.797039 0.404383
vt 0.730545 0.281512
vt 0.696497 0.330693
vt 0.793501 0.435926
vt 0.752267 0.498873
vt 0.287506 0.394140
vt 0.267664 0.449337
vt 0.235177 0.463041
vt 0.824374 0.462106
vt 0.820037 0.397071
vt 0.850329 0.449968
vt 0.659629 0.273045
vt 0.695161 0.448330
vt 0.590633 0.507270
vt 0.156476 0.230902
vt 0.245388 0.158508
vt 0.227115 0.218809
vt 0.013825 0.669973
vt 0.032146 0.637653
vt 0.096581 0.609422
vt 0.023736 0.878172
vt 0.000799 0.812206
vt 0.715871 0.134112
vt 0.716353 0.046589
vt 0.245937 0.200528
vt 0.076849 0.137087
vt 0.153914 0.027408
vt 0.287408 0.208770
vt 0.239336 0.294361
vt 0.670255 0.181474
vt 0.597781 0.080107
vt 0.632601 0.030652
vt 0.600658 0.043980
vt 0.158037 0.739483
vt 0.156377 0.701301
vt 0.937670 0.780857
vt 0.947379 0.817489
vt 0.878420 0.830730
vt 0.850942 0.822086
vt 0.831874 0.831043
vt 0.848293 0.787800
vt 0.519100 0.195105
vt 0.519204 0.073453
vt 0.849300 0.129817
vt 0.818395 0.142433
vt 0.838249 0.007240
vt 0.152053 0.800940
vt 0.865694 0.746640
vt 0.928139 0.725527
vt 0.130562 0.867728
vt 0.552426 0.065721
vt 0.570761 0.056316
vt 0.770351 0.945861
vt 0.830638 0.855026
vt 0.819403 0.928545
vt 0.902669 0.689402
vt 0.842476 0.689505
vt 0.374064 0.605895
vt 0.152400 0.288210
vt 0.300261 0.303100
vt 0.831208 0.183732
vt 0.798596 0.188983
vt 0.679133 0.965116
vt 0.508346 0.906041
vt 0.299960 0.425770
vt 0.799105 0.472924
vt 0.143892 0.666120
vt 0.083466 0.314985
vt 0.398282 0.001719
vt 0.696286 0.784907
vt 0.830933 0.625983
vt 0.479513 0.848866
vt 0.030773 0.115342
vt 0.064008 0.100590
vt 0.509136 0.518934
vt 0.682536 0.661942
vt 0.427703 0.499758
vt 0.535423 0.710285
vt 0.595565 0.768672
vt 0.740022 0.509242
vt 0.773721 0.516438
vt 0.506986 0.430179
vt 0.989588 0.542391
vt 0.776370 0.502215
vt 0.586561 0.770399
vt 0.647210 0.790245
vt 0.706138 0.304155
vt 0.731394 0.478011
vt 0.659408 0.816796
vt 0.679135 0.838855
vt 0.508858 0.251996
vt 0.538497 0.463501
vt 0.878585 0.712401
vt 0.910430 0.690717
vt 0.181602 0.034519
vt 0.172833 0.001187
vt 0.656281 0.003596
vt 0.694870 0.023393
vt 0.930525 0.668653
vt 0.938505 0.835404
vt 0.966089 0.848823
vt 0.157905 0.835959
vt 0.532750 0.045972
vt 0.817023 0.008453
vt 0.702523 0.683066
vt 0.999324 0.561719
vt 0.231968 0.620091
vt 0.886943 0.691598
vt 0.151655 0.865032
vt 0.718063 0.510788
vn -0.0917 -0.8688 0.4865
vn -0.0939 -0.8666 0.4901
vn 0.0705 -0.9935 -0.0892
vn -0.4257 -0.8872 -0.1781
vn -0.6568 -0.6572 0.3699
vn -0.8452 -0.4896 0.2144
vn -0.7835 -0.2261 0.5788
vn -0.6673 -0.6417 0.3779
vn 0.8421 -0.5358 -0.0621
vn 0.7800 -0.5994 0.1797
vn 0.1380 -0.8101 -0.5698
vn -0.0943 -0.8669 0.4895
vn -0.6333 -0.5124 0.5800
vn 0.1572 -0.2995 0.9411
vn -0.8237 -0.4281 0.3719
vn -0.8777 -0.4514 0.1609
vn -0.1211 0.4419 0.8889
vn -0.1167 0.4469 0.8870
vn -0.1208 0.4420 0.8889
vn -0.1249 0.4431 0.8877
vn 0.3470 0.5961 0.7240
vn 0.2387 0.4515 0.8598
vn 0.4510 0.6427 0.6193
vn 0.8036 -0.1045 0.5859
vn 0.8134 -0.1116 0.5709
vn 0.4795 0.6953 0.5353
vn -0.9265 -0.3762 -0.0004
vn -0.4270 -0.8853 -0.1839
vn -0.4265 -0.8856 -0.1840
vn -0.9337 -0.3577 0.0156
vn -0.9413 -0.2074 0.2663
vn -0.9421 -0.1715 0.2882
vn -0.8551 0.3253 -0.4037
vn -0.2374 0.2943 -0.9258
vn -0.9285 -0.3714 -0.0009
vn -0.6156 -0.1979 -0.7628
vn -0.8564 0.3282 -0.3987
vn -0.1004 -0.3436 -0.9337
vn 0.4269 0.1203 -0.8963
vn -0.8801 0.3490 0.3220
vn -0.2514 0.9464 0.2029
vn -0.2478 0.9584 0.1418
vn -0.3615 0.7618 -0.5376
vn -0.8910 0.4037 0.2074
vn -0.8870 0.3453 0.3066
vn -0.7702 0.6357 -0.0508
vn -0.8368 0.5212 -0.1678
vn 0.6884 0.5723 -0.4456
vn 0.7840 0.3043 -0.5411
vn -0.2350 0.9604 0.1497
vn 0.4188 0.9039 0.0867
vn 0.5116 0.7532 0.4134
vn 0.3207 0.9350 -0.1517
vn 0.6778 0.5774 -0.4552
vn -0.3542 0.7674 -0.5345
vn -0.2416 0.9601 0.1409
vn 0.4818 0.8720 -0.0865
vn -0.2409 0.9602 0.1415
vn 0.6838 0.5795 -0.4434
vn 0.6000 0.5910 -0.5392
vn 0.9710 -0.0479 -0.2342
vn 0.4798 0.6951 0.5354
vn -0.6613 -0.6408 0.3900
vn -0.9293 -0.3294 0.1672
vn -0.9329 -0.3499 0.0857
vn -0.8806 0.3643 -0.3029
vn -0.9755 0.1537 0.1572
vn 0.7789 -0.6018 0.1765
vn -0.2458 0.6537 -0.7157
vn -0.3239 0.6045 -0.7278
vn 0.1443 -0.8115 -0.5663
vn 0.8175 -0.1093 0.5655
vn 0.0572 -0.1275 -0.9902
vn -0.2548 0.9580 0.1314
vn -0.8411 -0.4916 0.2257
vn -0.1021 -0.8656 0.4903
vn -0.8853 -0.3093 0.3472
vn -0.9136 -0.3667 0.1758
vn -0.6521 -0.6581 0.3763
vn -0.6543 -0.6551 0.3778
vn 0.1447 -0.8115 -0.5661
vn 0.7758 -0.6062 0.1748
vn 0.7788 -0.6017 0.1772
vn 0.9716 -0.0430 -0.2326
vn 0.1569 -0.2999 0.9410
vn -0.8309 -0.4060 0.3805
vn -0.3516 0.7647 -0.5400
vn -0.8408 -0.3890 0.3766
vn -0.8233 -0.4267 0.3743
vn -0.1211 0.4389 0.8903
vn -0.1197 0.4431 0.8885
vn -0.6283 -0.5034 0.5932
vn -0.1061 0.4366 0.8934
vn -0.1246 0.4509 0.8839
vn -0.6150 -0.5282 0.5855
vn 0.8131 -0.1107 0.5715
vn 0.8134 -0.1123 0.5707
vn 0.9708 -0.0433 -0.2359
vn 0.8174 -0.1097 0.5655
vn 0.4791 0.6963 0.5344
vn 0.4570 0.6944 0.5559
vn 0.4817 0.4086 0.7752
vn 0.8122 -0.1145 0.5720
vn 0.7251 0.5136 0.4587
vn -0.9263 -0.3769 -0.0013
vn 0.1439 -0.8020 -0.5797
vn 0.1451 -0.8118 -0.5656
vn -0.9210 -0.3897 0.0013
vn -0.8789 0.3238 -0.3503
vn -0.8595 0.3326 -0.3882
vn -0.2372 0.2945 -0.9258
vn -0.9444 -0.0513 0.3247
vn -0.6125 -0.1967 -0.7656
vn -0.5435 -0.2591 -0.7984
vn -0.6148 -0.1992 -0.7631
vn -0.6181 -0.2128 -0.7568
vn -0.6146 -0.1971 -0.7638
vn 0.1434 -0.8128 -0.5646
vn 0.9714 -0.0435 -0.2334
vn -0.2356 0.2820 -0.9301
vn -0.2777 0.2966 -0.9137
vn 0.4183 0.1033 -0.9024
vn 0.4279 0.1214 -0.8956
vn 0.4262 0.1213 -0.8964
vn -0.9747 0.1713 0.1439
vn -0.8889 0.3423 0.3044
vn 0.5754 0.8150 0.0688
vn -0.9739 -0.0756 0.2140
vn -0.9846 0.1266 0.1209
vn -0.8788 0.3646 0.3079
vn -0.4561 0.7234 0.5183
vn -0.9299 0.3657 0.0384
vn -0.8353 0.5185 -0.1829
vn 0.7101 0.5646 -0.4207
vn 0.6702 0.5920 -0.4477
vn 0.4795 0.6979 0.5320
vn 0.4828 0.8716 -0.0846
vn 0.4168 0.9019 0.1132
vn 0.3166 0.9241 0.2138
vn -0.1453 0.9868 0.0708
vn 0.6367 0.7081 -0.3052
vn -0.3272 0.7676 -0.5512
vn 0.6818 0.5794 -0.4467
vn 0.6678 0.5582 -0.4924
vn 0.5582 0.8234 -0.1020
vn -0.8745 -0.3164 0.3677
vn 0.4825 0.8645 -0.1407
vn 0.9718 -0.0426 -0.2321
vn -0.8565 -0.1476 0.4946
vn -0.8794 0.3467 0.3263
vn -0.0890 -0.3417 -0.9356
vn 0.4800 0.6950 0.5354
vn 0.4938 0.7224 0.4841
vn -0.8132 -0.4865 0.3195
vn -0.8720 -0.4709 0.1337
vn -0.9751 0.1542 0.1590
vn 0.9716 -0.0436 -0.2328
vn 0.0505 -0.9955 -0.0796
vn 0.1252 -0.8483 -0.5145
vn -0.2410 0.9606 0.1386
vn -0.2415 0.9601 0.1412
vn -0.3562 0.7616 -0.5414
vn -0.3578 0.7598 -0.5428
vn -0.9746 -0.1533 0.1632
vn -0.9810 0.1415 0.1329
vn 0.6503 0.7290 -0.2137
vn -0.1522 0.9846 0.0856
vn 0.6629 0.7138 -0.2261
vn -0.8658 -0.3427 0.3647
vn 0.9719 -0.0475 -0.2307
vn -0.1097 -0.3228 -0.9401
s off
f 3/1/1 18/2/1 1/3/1
f 10/4/2 2/5/2 18/2/2
f 37/6/3 10/7/3 3/8/3
f 4/9/4 37/10/4 3/11/4
f 6/12/5 8/13/5 3/11/5
f 7/14/6 6/15/6 25/16/6
f 5/17/7 8/18/7 7/14/7
f 4/9/8 8/13/8 5/19/8
f 12/20/9 13/21/9 14/22/9
f 14/22/10 10/23/10 12/20/10
f 13/24/11 12/25/11 11/26/11
f 1/3/12 18/2/12 17/27/12
f 17/28/13 16/29/13 1/30/13
f 17/27/14 18/2/14 16/31/14
f 15/32/15 21/33/15 25/16/15
f 25/16/16 21/33/16 24/34/16
f 28/35/17 67/36/17 16/37/17
f 29/38/18 67/36/18 28/35/18
f 67/36/19 22/39/19 16/37/19
f 67/36/20 27/40/20 22/39/20
f 20/41/21 31/42/21 28/43/21
f 29/44/22 28/43/22 34/45/22
f 29/44/23 34/45/23 35/46/23
f 18/47/24 31/48/24 20/49/24
f 32/50/25 35/51/25 30/52/25
f 32/53/26 77/54/26 29/44/26
f 45/55/27 39/56/27 4/57/27
f 4/9/28 38/58/28 37/10/28
f 39/59/29 38/58/29 4/9/29
f 5/17/30 41/60/30 45/55/30
f 41/60/31 42/61/31 43/62/31
f 43/62/32 42/61/32 44/63/32
f 50/64/33 45/55/33 48/65/33
f 49/66/34 47/67/34 52/68/34
f 43/62/35 48/65/35 45/55/35
f 45/69/36 46/70/36 38/71/36
f 49/72/37 52/73/37 51/74/37
f 55/75/38 58/76/38 56/77/38
f 59/78/39 54/79/39 56/80/39
f 63/81/40 64/82/40 65/83/40
f 66/84/41 67/85/41 68/86/41
f 71/87/42 64/88/42 66/84/42
f 49/66/43 50/89/43 71/90/43
f 65/83/44 64/82/44 70/91/44
f 26/92/45 27/93/45 64/82/45
f 71/94/46 70/91/46 64/82/46
f 70/91/47 71/94/47 69/95/47
f 57/96/48 75/97/48 74/98/48
f 76/99/49 74/98/49 75/97/49
f 81/100/50 66/84/50 80/101/50
f 81/102/51 80/103/51 77/104/51
f 73/105/52 77/104/52 82/106/52
f 73/105/53 74/107/53 77/104/53
f 59/78/54 61/108/54 86/109/54
f 61/110/55 87/111/55 86/112/55
f 83/113/56 66/84/56 81/100/56
f 76/114/57 83/115/57 81/102/57
f 66/84/58 83/113/58 88/116/58
f 57/96/59 59/78/59 84/117/59
f 75/97/60 72/118/60 76/99/60
f 54/119/61 14/120/61 13/121/61
f 79/122/62 68/123/62 29/44/62
f 1/30/63 15/124/63 6/12/63
f 24/34/64 62/125/64 42/61/64
f 42/61/65 62/125/65 44/63/65
f 69/95/66 50/64/66 48/65/66
f 43/62/67 69/95/67 48/65/67
f 30/52/68 2/126/68 10/23/68
f 87/111/69 60/127/69 53/128/69
f 87/111/70 61/110/70 60/127/70
f 54/129/71 11/26/71 37/130/71
f 18/47/72 20/49/72 19/131/72
f 55/75/73 40/132/73 46/70/73
f 80/101/74 68/86/74 79/133/74
f 9/134/75 24/34/75 42/61/75
f 3/1/76 10/4/76 18/2/76
f 7/14/77 8/18/77 6/15/77
f 7/14/78 25/16/78 9/134/78
f 3/11/79 1/30/79 6/12/79
f 4/9/80 3/11/80 8/13/80
f 11/26/81 54/129/81 13/24/81
f 12/20/82 10/23/82 11/135/82
f 10/23/83 14/22/83 30/52/83
f 59/136/84 30/137/84 14/120/84
f 18/2/85 19/138/85 16/31/85
f 23/139/86 22/140/86 21/33/86
f 71/90/87 53/128/87 49/66/87
f 21/33/88 22/140/88 26/92/88
f 15/32/89 23/139/89 21/33/89
f 29/38/90 68/141/90 67/36/90
f 22/39/91 23/142/91 16/37/91
f 16/29/92 23/143/92 15/124/92
f 20/144/93 28/35/93 16/37/93
f 19/145/94 20/144/94 16/37/94
f 15/124/95 1/30/95 16/29/95
f 18/47/96 30/52/96 31/48/96
f 18/47/97 2/126/97 30/52/97
f 36/146/98 33/147/98 30/137/98
f 30/52/99 33/148/99 32/50/99
f 35/46/100 32/53/100 29/44/100
f 36/149/101 77/54/101 32/53/101
f 31/42/22 34/45/22 28/43/22
f 35/46/102 34/45/102 31/42/102
f 31/48/103 30/52/103 35/51/103
f 33/147/104 36/146/104 32/150/104
f 4/57/105 5/17/105 45/55/105
f 54/129/106 38/151/106 40/152/106
f 37/130/107 38/151/107 54/129/107
f 41/60/108 43/62/108 45/55/108
f 50/64/109 51/74/109 45/55/109
f 50/64/110 49/72/110 51/74/110
f 49/66/111 53/128/111 47/67/111
f 24/34/112 63/81/112 62/125/112
f 51/153/113 52/68/113 46/70/113
f 46/70/114 40/132/114 38/71/114
f 52/68/115 47/67/115 46/70/115
f 51/153/116 46/70/116 45/69/116
f 39/154/117 45/69/117 38/71/117
f 54/129/118 55/155/118 56/156/118
f 54/119/119 59/136/119 14/120/119
f 47/67/120 60/127/120 58/76/120
f 47/67/121 53/128/121 60/127/121
f 61/108/122 59/78/122 60/157/122
f 58/158/123 60/157/123 56/80/123
f 60/157/124 59/78/124 56/80/124
f 69/95/125 63/81/125 65/83/125
f 63/81/126 26/92/126 64/82/126
f 72/159/127 85/160/127 83/115/127
f 21/33/128 26/92/128 63/81/128
f 62/125/129 69/95/129 44/63/129
f 27/93/130 66/161/130 64/82/130
f 27/93/131 67/162/131 66/161/131
f 65/83/132 70/91/132 69/95/132
f 69/95/133 71/94/133 50/64/133
f 74/98/134 73/163/134 57/96/134
f 82/164/135 57/96/135 73/163/135
f 77/54/136 78/165/136 79/122/136
f 81/102/137 77/104/137 76/114/137
f 77/104/138 80/103/138 78/166/138
f 79/167/139 78/166/139 80/103/139
f 85/168/140 88/116/140 83/113/140
f 86/109/141 85/169/141 84/117/141
f 88/170/142 86/112/142 87/111/142
f 84/117/143 59/78/143 86/109/143
f 84/117/144 75/97/144 57/96/144
f 77/104/145 74/107/145 76/114/145
f 41/60/146 9/134/146 42/61/146
f 83/115/147 76/114/147 72/159/147
f 57/171/148 36/146/148 30/137/148
f 7/14/149 41/60/149 5/17/149
f 26/92/150 22/140/150 27/93/150
f 46/70/151 58/76/151 55/75/151
f 77/54/152 79/122/152 29/44/152
f 36/149/153 82/172/153 77/54/153
f 6/15/154 15/32/154 25/16/154
f 9/134/155 25/16/155 24/34/155
f 44/63/156 69/95/156 43/62/156
f 59/136/157 57/171/157 30/137/157
f 10/7/158 37/6/158 11/173/158
f 54/129/159 40/152/159 55/155/159
f 68/86/160 80/101/160 66/84/160
f 88/116/161 71/87/161 66/84/161
f 71/90/162 88/170/162 87/111/162
f 71/90/163 87/111/163 53/128/163
f 24/34/164 21/33/164 63/81/164
f 69/95/165 62/125/165 63/81/165
f 72/159/166 84/174/166 85/160/166
f 85/168/167 86/175/167 88/116/167
f 84/117/168 72/118/168 75/97/168
f 41/60/169 7/14/169 9/134/169
f 57/171/170 82/176/170 36/146/170
f 46/70/171 47/67/171 58/76/171
